<svg width="393" height="430" viewBox="0 0 393 430" fill="none" xmlns="http://www.w3.org/2000/svg">
<g clip-path="url(#clip0_5_395)">
<path d="M101.853 185.258C147.045 185.258 183.68 148.632 183.68 103.453C183.68 58.2734 147.045 21.6482 101.853 21.6482C56.6613 21.6482 20.0261 58.2734 20.0261 103.453C20.0261 148.632 56.6613 185.258 101.853 185.258Z" fill="#FF6884"/>
<path d="M224.101 31.6104L66.4948 118.401C48.2885 141.738 394.231 143.18 391.376 118.487L238.546 31.6962C234.196 29.2259 228.492 29.192 224.101 31.6104Z" fill="#6C63FF"/>
<path opacity="0.2" d="M224.101 31.6104L66.4948 118.401C48.2885 141.738 394.231 143.18 391.376 118.487L238.546 31.6962C234.196 29.2259 228.492 29.192 224.101 31.6104Z" fill="black"/>
<path opacity="0.8" d="M390.722 430L350.632 429.146H75.7263L0 427.437C251.055 368.12 173.863 373.228 390.722 430Z" fill="#F2F2F2"/>
<path d="M353.814 427.437L350.632 429.146H75.7263C263.645 390.366 150.982 393.78 353.814 427.437Z" fill="#E6E6E6"/>
<path d="M220.983 24.3651H232.815L228.825 1.88154C228.578 0.492453 227.633 0 226.899 0C226.164 0 225.219 0.492453 224.973 1.88154L220.983 24.3651Z" fill="#3F3D56"/>
<path d="M232.906 98.5485H219.861V416.64H232.906V98.5485Z" fill="#3F3D56"/>
<path d="M226.421 148.205C220.855 148.205 215.623 146.05 211.668 142.125L178.744 109.446L181.433 106.737L214.357 139.416C217.631 142.665 221.953 144.439 226.588 144.387C231.201 144.344 235.51 142.497 238.722 139.187L270.183 106.762L272.924 109.42L241.463 141.844C237.535 145.893 232.265 148.151 226.624 148.204C226.556 148.205 226.488 148.205 226.421 148.205Z" fill="#3F3D56"/>
<path d="M230.982 123.257C214.782 123.257 198.454 123.201 182.606 123.089C149.028 122.85 120.36 122.379 99.7023 121.725C64.491 120.611 64.1162 119.344 63.9557 118.804C63.919 118.679 63.9062 118.436 64.2378 118.218L221.411 14.8857C225.19 12.3946 230.054 12.4285 233.8 14.9746L392.704 118.303C393.035 118.528 393.018 118.771 392.98 118.896C392.781 119.531 392.179 121.464 322.409 122.599C295.863 123.031 263.691 123.257 230.982 123.257Z" fill="#6C63FF"/>
<path d="M261.243 276.579L241.323 276.601C239.093 281.557 242.14 287.353 246.038 291.141C249.935 294.93 254.821 297.836 257.699 302.446C264.084 312.677 258.067 326.13 260.176 338.003C263.016 353.99 279.781 364.052 284.887 379.466C287.775 388.187 286.462 398.195 281.423 405.876C280.492 407.294 279.418 408.694 279.093 410.358C278.65 412.621 279.842 415.106 281.883 416.179C283.925 417.252 286.648 416.824 288.262 415.176C286.686 416.966 287.203 419.989 288.972 421.589C290.741 423.189 293.376 423.53 295.71 423.037C303.274 421.44 307.081 412.705 307.387 404.983C307.693 397.261 305.755 389.436 307.267 381.857C308.232 392.734 320.542 399.642 321.507 410.519C321.686 412.535 310.543 418.598 311.58 420.336C314.201 424.729 320.449 424.744 325.538 424.218C334.301 423.311 344.032 421.9 349.529 415.017C353.232 410.38 354.191 404.139 354.313 398.207C354.631 382.72 350.016 367.168 341.301 354.36C329.702 337.313 311.264 325.231 302.158 306.733C299.064 300.446 297.17 293.628 294.159 287.301C291.148 280.973 286.719 274.919 280.311 272.079C273.904 269.24 265.277 270.64 261.58 276.593" fill="#3F3D56"/>
<path d="M323.01 412.672C322.614 412.672 322.225 412.587 321.859 412.417C321.575 412.284 321.451 411.946 321.584 411.661C321.717 411.377 322.055 411.253 322.34 411.386C322.967 411.678 323.571 411.487 323.967 411.274C324.781 410.838 325.418 409.945 325.553 409.052C325.814 407.326 324.949 405.562 324.186 404.007C321.96 399.47 319.759 394.612 319.428 389.478C319.056 383.689 321.446 378.297 325.518 375.741C328.545 373.841 332.546 373.344 336.785 374.34C340.417 375.194 343.763 376.985 347.156 378.901C347.429 379.056 347.526 379.403 347.371 379.676C347.217 379.95 346.87 380.046 346.596 379.891C343.151 377.945 340.015 376.268 336.525 375.447C332.584 374.521 328.89 374.967 326.123 376.704C322.399 379.041 320.217 384.027 320.564 389.405C320.88 394.331 323.031 399.072 325.207 403.506C326.002 405.127 326.992 407.144 326.678 409.222C326.488 410.471 325.636 411.67 324.505 412.276C324.014 412.539 323.506 412.672 323.01 412.672Z" fill="#2F2E41"/>
<path d="M289.87 286.473C292.793 292.273 291.251 299.975 286.319 304.201C285.26 305.109 284.068 305.869 283.121 306.893C282.174 307.917 281.479 309.304 281.717 310.678C278.487 307.473 275.192 304.181 273.238 300.073C271.284 295.964 270.903 290.806 273.446 287.033C274.659 285.233 276.428 283.883 277.804 282.205C279.181 280.527 280.175 278.242 279.43 276.203" fill="#2F2E41"/>
<path d="M347.971 397.853C346.426 402.576 348.97 408.011 353.144 410.709C357.317 413.408 362.711 413.687 367.529 412.466C376.846 410.105 384.498 402.13 386.47 392.725C387.291 388.814 387.233 384.622 389.09 381.083C390.257 378.858 392.183 376.848 392.238 374.337C392.284 372.296 390.959 370.359 389.151 369.41C387.343 368.461 385.142 368.427 383.196 369.046C378.558 370.519 375.711 375.215 374.235 379.851C372.759 384.488 372.209 389.445 370.064 393.813C367.919 398.18 363.486 401.994 358.665 401.327C354.496 400.751 350.967 396.993 346.79 397.505" fill="#3F3D56"/>
<path d="M115.003 338.916C109.364 339.78 105.238 343.39 105.789 346.977C106.34 350.565 111.357 352.772 116.998 351.907C119.257 351.592 121.407 350.742 123.268 349.426L164.063 343.282L165.601 329.193L121.731 339.405C119.559 338.707 117.252 338.54 115.003 338.916Z" fill="#FFB6B6"/>
<path d="M217.769 309.54L208.522 329.157L162.035 344.802L164.301 328.858L207.198 308.592L217.769 309.54Z" fill="#E6E6E6"/>
<path d="M132.031 384.026L123.729 405.019L112.985 397.696L119.333 375.726L132.031 384.026Z" fill="#FFB6B6"/>
<path d="M97.3577 376.214L75.3818 397.208L84.1722 406.484L106.636 388.908L97.3577 376.214Z" fill="#FFB6B6"/>
<path d="M221.887 307.863L221.643 306.155L216.027 295.17L197.47 300.052L200.888 315.187L221.887 307.863Z" fill="#FFB6B6"/>
<path d="M214.074 381.096L214.644 388.429C214.644 388.429 217.004 419.177 197.958 421.619C178.912 424.06 170.61 426.501 159.378 407.46L141.798 376.214L131.529 388.429L117.868 377.679C117.868 377.679 127.635 339.598 135.449 338.133C136.426 337.95 137.402 337.858 138.364 337.838C144.833 337.704 150.93 340.867 154.801 346.05L176.959 375.726L185.017 372.064L214.074 381.096Z" fill="#2F2E41"/>
<path d="M108.59 404.043L113.524 396.763L124.849 402.138C124.849 402.138 128.612 415.272 124.217 416.736C119.822 418.201 107.613 416.248 107.613 416.248C107.613 416.248 85.1488 421.13 84.6604 416.736C84.1721 412.342 94.9158 411.366 94.9158 411.366L108.59 404.043Z" fill="#FFB6B6"/>
<path d="M156.448 398.184L122.508 376.804L105.171 392.325L93.4509 378.655C93.4509 378.655 114.938 346.921 121.287 345.456C127.636 343.992 137.891 343.015 137.891 343.015L169.145 371.82L156.448 398.184Z" fill="#2F2E41"/>
<path d="M77.7481 395.334L84.9253 405.569L84.6444 408.727C84.6444 408.727 81.7304 421.415 74.8935 417.123C68.0566 412.831 67.5682 411.854 67.5682 411.854C67.5682 411.854 48.0342 416.248 46.0807 408.437C44.1273 400.625 49.4992 402.09 49.4992 402.09L54.377 405.019L73.3905 398.665L77.7481 395.334Z" fill="#FFB6B6"/>
<path d="M203.33 305.422C211.961 305.422 218.957 298.428 218.957 289.799C218.957 281.171 211.961 274.176 203.33 274.176C194.699 274.176 187.703 281.171 187.703 289.799C187.703 298.428 194.699 305.422 203.33 305.422Z" fill="#FFB6B6"/>
<path d="M199.667 312.013L222.131 305.178C222.131 305.178 230.922 325.683 229.457 334.96C227.992 344.236 214.644 388.429 214.644 388.429L185.017 372.064C185.017 372.064 184.528 362.3 183.063 357.906C181.598 353.512 176.959 340.086 187.214 328.857C197.47 317.628 199.667 312.013 199.667 312.013Z" fill="#E6E6E6"/>
<path d="M150.225 414.53C146.569 418.909 145.866 424.344 148.654 426.67C151.441 428.995 156.664 427.331 160.321 422.95C161.805 421.22 162.854 419.16 163.379 416.942L197.986 378.147L187.262 372.351L155.593 410.446C153.503 411.359 151.662 412.76 150.225 414.53Z" fill="#FFB6B6"/>
<path d="M216.898 321.863L222.208 342.889L196.22 384.477L198.566 383.942L184.363 373.51L187.848 370.72L208.128 327.838L216.898 321.863Z" fill="#E6E6E6"/>
<path d="M188.924 287.114C192.931 287.105 193.159 287.131 193.807 287.114C198.778 286.983 200.078 285.028 202.598 285.161C207.095 285.399 201.159 307.94 198.691 318.36C196.27 328.58 204.451 337.738 205.039 338.377C213.344 347.406 227.931 349.057 230.434 345.212C232.459 342.1 225.279 337.368 227.015 330.566C228.712 323.916 236.546 324.624 238.736 318.36C241.029 311.8 233.322 308.491 228.48 292.485C225.699 283.292 226.191 281.579 223.597 275.885C216.661 260.666 182.665 267.146 186.482 281.256C187.22 283.985 185.255 287.123 188.924 287.114Z" fill="#2F2E41"/>
</g>
<defs>
<clipPath id="clip0_5_395">
<rect width="393" height="430" fill="white"/>
</clipPath>
</defs>
</svg>
