<svg width="682" height="261" viewBox="0 0 682 261" fill="none" xmlns="http://www.w3.org/2000/svg">
<path d="M132.36 27.2628H80.7788V218.98H132.36V27.2628Z" fill="#CCCCCC"/>
<path d="M41.3031 144.615H25.2548C21.2582 144.615 18.019 141.375 18.019 137.379V93.8195C18.019 89.8229 21.2586 86.5836 25.2548 86.5836H41.3031C45.2997 86.5836 48.5389 89.8233 48.5389 93.8195V137.378C48.5389 141.375 45.2993 144.615 41.3031 144.615Z" fill="#FF757C"/>
<path d="M188.745 144.615H172.697C168.7 144.615 165.461 141.375 165.461 137.379V93.8195C165.461 89.8229 168.701 86.5836 172.697 86.5836H188.745C192.742 86.5836 195.981 89.8233 195.981 93.8195V137.378C195.981 141.375 192.742 144.615 188.745 144.615Z" fill="#FF757C"/>
<path d="M140.529 176.424H72.6113C68.5754 176.424 65.304 173.153 65.304 169.117C65.304 165.081 68.5759 161.81 72.6113 161.81H140.529C144.565 161.81 147.837 165.082 147.837 169.117C147.837 173.153 144.565 176.424 140.529 176.424Z" fill="white"/>
<path d="M155.144 218.981H57.9959C50.3989 218.981 44.2402 225.139 44.2402 232.736H168.9C168.9 225.139 162.741 218.981 155.144 218.981Z" fill="white"/>
<path d="M188.745 82.3208H184.483C182.856 72.578 174.37 65.1269 164.172 65.1269H136.625V27.2633C136.625 24.9084 134.716 23 132.362 23H80.7788C78.4244 23 76.516 24.9084 76.516 27.2628V65.1261H48.969C38.771 65.1261 30.285 72.5772 28.6579 82.32H25.2552C18.9147 82.32 13.7561 87.4785 13.7561 93.8187V137.378C13.7561 143.719 18.9147 148.877 25.2552 148.877H41.3035C47.644 148.877 52.8022 143.718 52.8022 137.378V93.8195C52.8022 87.479 47.6436 82.3208 41.3035 82.3208H37.3892C38.8626 77.3165 43.4945 73.6526 48.969 73.6526H76.516V157.547H72.6117C66.2319 157.547 61.0411 162.737 61.0411 169.118C61.0411 175.498 66.2319 180.688 72.6117 180.688H76.516V214.719H57.9962C48.0608 214.719 39.9777 222.802 39.9777 232.737C39.9777 235.092 41.8861 237 44.2405 237H168.9C171.254 237 173.163 235.092 173.163 232.737C173.163 222.802 165.08 214.719 155.144 214.719H136.625V180.688H140.529C146.909 180.688 152.099 175.497 152.099 169.118C152.099 162.738 146.909 157.547 140.529 157.547H136.625V73.6522H164.171C169.646 73.6522 174.278 77.3165 175.751 82.3204H172.697C166.356 82.3204 161.198 87.479 161.198 93.8191V137.378C161.198 143.719 166.357 148.877 172.697 148.877H188.745C195.086 148.877 200.244 143.719 200.244 137.378V93.8195C200.244 87.479 195.086 82.3208 188.745 82.3208ZM44.2761 93.8195V137.379C44.2761 139.019 42.9427 140.352 41.3031 140.352H25.2548C23.6151 140.352 22.2814 139.019 22.2814 137.379V93.8195C22.2814 92.1798 23.6151 90.8465 25.2548 90.8465H41.3031C42.9423 90.8465 44.2761 92.1802 44.2761 93.8195ZM128.099 65.1265H110.833V31.5261H128.099V65.1265ZM85.0416 31.5257H102.307V65.1261H85.0416V31.5257ZM155.145 223.243C158.847 223.243 162.061 225.374 163.625 228.473H49.5153C51.0793 225.373 54.2931 223.243 57.9958 223.243H155.145ZM128.099 214.718H85.0416V180.687H128.099V214.718ZM143.574 169.117C143.574 170.796 142.208 172.162 140.529 172.162H72.6113C70.9328 172.162 69.5668 170.796 69.5668 169.117C69.5668 167.439 70.9328 166.072 72.6113 166.072H140.529C142.208 166.072 143.574 167.438 143.574 169.117ZM128.099 157.546H85.0416V73.6522H102.307V77.9865C102.307 80.3409 104.216 82.2493 106.57 82.2493C108.925 82.2493 110.833 80.3409 110.833 77.9865V73.6522H128.099V157.546ZM191.718 137.379C191.718 139.019 190.384 140.352 188.745 140.352H172.696C171.057 140.352 169.723 139.019 169.723 137.379V93.8195C169.723 92.1798 171.057 90.8465 172.696 90.8465H188.745C190.384 90.8465 191.718 92.1798 191.718 93.8195V137.379Z" fill="#603813"/>
<path d="M29.6251 137.272C31.9795 137.272 33.8879 135.363 33.8879 133.009V117.104C33.8879 114.75 31.9795 112.841 29.6251 112.841C27.2707 112.841 25.3622 114.75 25.3622 117.104V133.009C25.3622 135.363 27.2707 137.272 29.6251 137.272Z" fill="#603813"/>
<path d="M29.6251 109.76C31.9795 109.76 33.8879 107.852 33.8879 105.497V104.208C33.8879 101.854 31.9795 99.9452 29.6251 99.9452C27.2707 99.9452 25.3622 101.854 25.3622 104.208V105.497C25.3622 107.852 27.2707 109.76 29.6251 109.76Z" fill="#603813"/>
<path d="M233.408 47.376C233.408 43.7067 236.096 41.872 241.472 41.872C243.776 41.872 248.171 41.9573 254.656 42.128C261.824 42.4693 267.243 42.64 270.912 42.64C273.899 42.64 277.525 42.4693 281.792 42.128C284.693 41.9573 286.528 41.872 287.296 41.872C291.989 42.0427 295.957 42.896 299.2 44.432C300.139 44.8587 300.907 45.3707 301.504 45.968C302.101 46.5653 302.4 47.5467 302.4 48.912C302.4 50.7893 301.803 52.4107 300.608 53.776C299.413 55.056 297.963 55.696 296.256 55.696C294.379 55.696 291.648 55.44 288.064 54.928C284.907 54.3307 282.133 54.032 279.744 54.032C277.44 54.032 275.691 54.0747 274.496 54.16C274.24 56.976 274.112 63.7173 274.112 74.384C274.112 87.0987 274.496 99.984 275.264 113.04L275.52 116.752C275.52 120.251 273.515 122 269.504 122C266.347 122 264.213 121.275 263.104 119.824C261.995 118.288 261.44 115.984 261.44 112.912C261.44 106.853 261.269 99.3013 260.928 90.256C260.587 82.7467 260.416 77.4133 260.416 74.256C260.416 72.1227 260.672 65.5947 261.184 54.672L246.208 54.8C241.429 54.8 238.101 54.3733 236.224 53.52C234.347 52.5813 233.408 50.5333 233.408 47.376ZM395.27 46.864C395.27 48.4 393.947 50.6613 391.302 53.648C389.425 55.7813 385.329 61.6267 379.014 71.184C373.638 79.2907 369.499 85.3067 366.598 89.232C366.683 98.3627 367.025 105.061 367.622 109.328C367.878 111.888 368.006 113.723 368.006 114.832C368.006 117.648 367.494 119.568 366.47 120.592C365.531 121.531 363.867 122 361.478 122C359.686 122 357.979 121.488 356.358 120.464C354.822 119.355 354.054 118.032 354.054 116.496C354.054 112.059 353.926 103.781 353.67 91.664C353.67 91.0667 352.902 89.488 351.366 86.928C350.001 84.5387 346.63 79.9307 341.254 73.104C336.049 66.3627 332.123 61.072 329.478 57.232C326.918 53.3067 325.638 50.32 325.638 48.272C325.638 46.48 326.449 45.072 328.07 44.048C329.777 42.9387 331.611 42.384 333.574 42.384C336.049 42.384 338.054 43.536 339.59 45.84C340.443 47.0347 341.766 49.3387 343.558 52.752C344.838 55.2267 346.289 57.8293 347.91 60.56C349.531 63.2907 351.025 65.5093 352.39 67.216L355.974 71.568C358.534 74.64 359.814 76.2187 359.814 76.304C362.374 73.744 364.678 70.928 366.726 67.856C368.774 64.6987 371.249 60.688 374.15 55.824L379.014 47.888L381.19 44.56C381.958 43.536 382.854 42.7253 383.878 42.128C384.902 41.5307 386.31 41.232 388.102 41.232C389.723 41.232 391.302 41.7013 392.838 42.64C394.459 43.5787 395.27 44.9867 395.27 46.864ZM458.801 93.072C455.558 93.072 452.785 92.9867 450.481 92.816C448.262 92.56 445.318 92.176 441.649 91.664C441.649 95.3333 441.564 99.8133 441.393 105.104L441.265 114.96C441.265 117.179 440.668 118.928 439.473 120.208C438.278 121.403 436.87 122 435.249 122C432.433 122 430.342 121.659 428.977 120.976C427.697 120.208 427.057 118.885 427.057 117.008C427.057 113.68 427.228 110.181 427.569 106.512C428.593 97.6373 429.105 87.6533 429.105 76.56C429.105 68.7947 428.892 61.4987 428.465 54.672C427.014 54.0747 425.734 53.3067 424.625 52.368C423.601 51.4293 423.046 50.4907 422.961 49.552C422.961 47.3333 423.772 45.5413 425.393 44.176C427.014 42.8107 429.489 42.128 432.817 42.128C435.548 42.128 438.918 41.9147 442.929 41.488C443.868 41.4027 445.489 41.2747 447.793 41.104C450.097 40.9333 452.102 40.848 453.809 40.848C460.806 40.848 466.225 41.5307 470.065 42.896C473.99 44.2613 477.916 46.5227 481.841 49.68C486.108 56.336 488.241 61.0293 488.241 63.76C488.241 72.5493 485.638 79.632 480.433 85.008C475.313 90.384 468.102 93.072 458.801 93.072ZM455.985 51.728C453.254 51.728 450.822 51.8987 448.689 52.24C446.641 52.496 444.252 52.9653 441.521 53.648C441.948 60.2187 442.161 65.936 442.161 70.8C442.161 74.4693 442.033 77.5413 441.777 80.016C445.446 80.784 448.305 81.296 450.353 81.552C452.486 81.7227 454.876 81.808 457.521 81.808C463.836 81.808 468.273 80.1867 470.833 76.944C473.478 73.7013 474.801 69.8613 474.801 65.424C474.801 64.144 474.417 62.5653 473.649 60.688C472.966 58.8107 472.326 57.5733 471.729 56.976C469.425 54.928 467.164 53.5627 464.945 52.88C462.726 52.112 459.74 51.728 455.985 51.728Z" fill="#DAB7DB"/>
<path d="M243.84 228.12C242.187 228.12 240.613 227.64 239.12 226.68C237.627 225.773 236.507 224.36 235.76 222.44C235.493 221.747 235.307 221 235.2 220.2C235.093 219.4 235.04 218.653 235.04 217.96V217.24C235.04 216.813 235.067 216.387 235.12 215.96C235.227 215.533 235.467 215.32 235.84 215.32C235.947 215.32 236 215.373 236 215.48C236 215.8 235.973 216.147 235.92 216.52C235.92 216.84 235.92 217.16 235.92 217.48C235.92 219.987 236.533 221.88 237.76 223.16C239.04 224.44 240.613 225.08 242.48 225.08C244.347 225.08 246.16 224.547 247.92 223.48C249.68 222.413 251.307 221.053 252.8 219.4C254.293 217.747 255.707 215.693 257.04 213.24C258.373 210.787 259.627 208.2 260.8 205.48C261.973 202.707 263.067 199.987 264.08 197.32C265.147 194.653 266.133 192.28 267.04 190.2C267.573 188.973 268.56 187.933 270 187.08C271.493 186.227 272.907 185.613 274.24 185.24C273.867 185.187 273.493 185.16 273.12 185.16C272.8 185.107 272.48 185.053 272.16 185L260.88 183.88C260.027 183.773 258.907 183.693 257.52 183.64C256.133 183.587 254.667 183.56 253.12 183.56C251.04 183.56 248.907 183.693 246.72 183.96C244.533 184.173 242.56 184.573 240.8 185.16C239.04 185.747 237.76 186.627 236.96 187.8C236.533 188.44 236.32 189.187 236.32 190.04C236.32 190.893 236.56 191.693 237.04 192.44C237.52 193.187 238.133 193.773 238.88 194.2C238.987 194.307 239.04 194.387 239.04 194.44C239.04 194.6 238.907 194.733 238.64 194.84C238.427 194.947 238.187 194.947 237.92 194.84C237.44 194.573 236.88 194.12 236.24 193.48C235.6 192.84 235.013 192.173 234.48 191.48C234 190.733 233.653 190.12 233.44 189.64C233.12 188.733 232.96 187.933 232.96 187.24C232.96 185.96 233.387 184.92 234.24 184.12C235.147 183.267 236.293 182.627 237.68 182.2C239.12 181.72 240.64 181.4 242.24 181.24C243.893 181.027 245.467 180.92 246.96 180.92C247.547 180.92 248.107 180.92 248.64 180.92C249.173 180.92 249.68 180.947 250.16 181C251.867 181.107 253.653 181.213 255.52 181.32C257.387 181.427 259.28 181.56 261.2 181.72L273.92 182.76C274.773 182.813 276.053 182.92 277.76 183.08C279.52 183.187 281.307 183.24 283.12 183.24C285.093 183.24 286.907 183.133 288.56 182.92C290.213 182.653 291.307 182.2 291.84 181.56C291.947 181.347 292.107 181.293 292.32 181.4C292.533 181.507 292.587 181.64 292.48 181.8C292.32 182.44 292.107 182.92 291.84 183.24C291.573 183.773 291.2 184.36 290.72 185C290.293 185.64 289.627 186.067 288.72 186.28C288.507 186.333 288.213 186.387 287.84 186.44C287.467 186.44 287.067 186.44 286.64 186.44C285.413 186.44 283.92 186.36 282.16 186.2C280.453 185.987 278.773 185.773 277.12 185.56C275.52 185.827 274.133 186.573 272.96 187.8C271.787 189.027 270.773 190.44 269.92 192.04C269.067 193.587 268.32 195.053 267.68 196.44C266.507 198.84 265.52 201.053 264.72 203.08C263.973 205.053 263.04 207.24 261.92 209.64C260.8 212.093 259.627 214.52 258.4 216.92C257.173 219.267 255.68 221.4 253.92 223.32C252.587 224.76 251.04 225.907 249.28 226.76C247.52 227.667 245.707 228.12 243.84 228.12ZM269.731 226.12C269.518 226.12 269.518 225.907 269.731 225.48C269.998 225 270.238 224.467 270.451 223.88C270.718 223.293 270.985 222.653 271.251 221.96C271.785 220.68 272.371 219.24 273.011 217.64C273.651 216.04 274.265 214.493 274.851 213C275.438 211.453 275.945 210.147 276.371 209.08C276.851 207.96 277.171 207.24 277.331 206.92C276.585 207.72 275.678 208.733 274.611 209.96C273.598 211.133 272.638 212.28 271.731 213.4C270.825 214.52 270.131 215.4 269.651 216.04C269.491 216.253 269.358 216.36 269.251 216.36C269.145 216.36 269.091 216.227 269.091 215.96C269.091 215.533 269.225 215.133 269.491 214.76C270.505 213.48 271.625 212.04 272.851 210.44C274.131 208.84 275.278 207.373 276.291 206.04C277.305 204.653 277.945 203.747 278.211 203.32C278.798 203.213 279.651 203.053 280.771 202.84C281.945 202.627 282.745 202.333 283.171 201.96C283.331 201.8 283.491 201.72 283.651 201.72C283.758 201.72 283.811 201.827 283.811 202.04C283.865 202.2 283.811 202.387 283.651 202.6C283.331 202.92 282.851 203.613 282.211 204.68C281.625 205.747 280.958 206.973 280.211 208.36C279.465 209.747 278.745 211.08 278.051 212.36C278.585 211.56 279.278 210.627 280.131 209.56C281.038 208.44 282.025 207.373 283.091 206.36C284.158 205.293 285.225 204.413 286.291 203.72C287.411 203.027 288.451 202.68 289.411 202.68C290.105 202.68 290.691 202.84 291.171 203.16C291.651 203.427 292.025 203.933 292.291 204.68C292.451 205.053 292.531 205.48 292.531 205.96C292.531 206.867 292.291 207.747 291.811 208.6C291.385 209.4 291.065 210.013 290.851 210.44C290.798 210.6 290.611 210.76 290.291 210.92C289.971 211.027 289.838 210.973 289.891 210.76C289.945 210.493 289.971 210.227 289.971 209.96C290.025 209.693 290.051 209.4 290.051 209.08C290.051 208.173 289.865 207.347 289.491 206.6C289.171 205.853 288.558 205.48 287.651 205.48C286.798 205.48 285.758 206.013 284.531 207.08C283.305 208.147 282.078 209.373 280.851 210.76C279.305 212.573 278.078 214.307 277.171 215.96C276.265 217.56 275.518 219.133 274.931 220.68C274.611 221.533 274.291 222.387 273.971 223.24C273.651 224.04 273.411 224.68 273.251 225.16C272.558 225.213 271.865 225.373 271.171 225.64C270.478 225.96 269.998 226.12 269.731 226.12ZM301.928 225.24C301.395 225.24 300.941 225.133 300.568 224.92C300.195 224.707 300.008 224.307 300.008 223.72C300.008 222.973 300.195 222.12 300.568 221.16C300.941 220.2 301.368 219.267 301.848 218.36C302.328 217.4 302.755 216.627 303.128 216.04C301.261 218.013 299.315 219.88 297.288 221.64C296.275 222.493 295.155 223.293 293.928 224.04C292.701 224.787 291.395 225.16 290.008 225.16C289.475 225.16 289.101 225 288.888 224.68C288.675 224.307 288.568 223.88 288.568 223.4C288.568 223.133 288.595 222.947 288.648 222.84C288.915 220.76 289.581 218.6 290.648 216.36C291.715 214.12 293.021 212.013 294.568 210.04C296.115 208.067 297.688 206.467 299.288 205.24C301.101 203.853 303.101 203.16 305.288 203.16H314.488C314.755 203.16 314.888 203.267 314.888 203.48C314.888 203.907 314.648 204.12 314.168 204.12C313.635 204.12 313.101 204.467 312.568 205.16C312.035 205.8 311.635 206.333 311.368 206.76C310.995 207.347 310.408 208.333 309.608 209.72C308.808 211.107 307.981 212.627 307.128 214.28C306.328 215.88 305.635 217.373 305.048 218.76C304.461 220.147 304.168 221.16 304.168 221.8C304.168 222.547 304.541 222.92 305.288 222.92C306.088 222.92 306.995 222.547 308.008 221.8C309.021 221.053 310.035 220.147 311.048 219.08C312.115 217.96 313.075 216.867 313.928 215.8C314.835 214.68 315.555 213.8 316.088 213.16C316.408 213.48 316.381 213.933 316.008 214.52C315.688 215.053 315.395 215.48 315.128 215.8C314.061 217.187 312.835 218.627 311.448 220.12C310.061 221.56 308.541 222.787 306.888 223.8C305.288 224.76 303.635 225.24 301.928 225.24ZM293.288 222.44C293.928 222.44 294.808 221.987 295.928 221.08C297.101 220.12 298.355 218.947 299.688 217.56C301.021 216.12 302.275 214.627 303.448 213.08C304.621 211.48 305.581 210.04 306.328 208.76C307.128 207.427 307.528 206.413 307.528 205.72C307.528 205.133 307.341 204.733 306.968 204.52C306.648 204.307 306.221 204.2 305.688 204.2C304.835 204.2 303.901 204.52 302.888 205.16C301.928 205.747 301.155 206.333 300.568 206.92C299.928 207.507 299.155 208.44 298.248 209.72C297.395 210.947 296.541 212.307 295.688 213.8C294.835 215.293 294.115 216.733 293.528 218.12C292.941 219.507 292.648 220.627 292.648 221.48C292.648 222.12 292.861 222.44 293.288 222.44ZM317.924 225.64C315.95 225.64 314.564 225.267 313.764 224.52C312.964 223.773 312.564 222.813 312.564 221.64C312.564 220.093 313.07 218.387 314.084 216.52C315.097 214.6 316.057 213 316.964 211.72C317.87 210.493 318.884 209.347 320.004 208.28C321.177 207.16 322.43 206.2 323.764 205.4C324.617 204.867 325.764 204.307 327.204 203.72C328.697 203.08 329.95 202.76 330.964 202.76C332.19 202.76 333.044 203.053 333.524 203.64C334.004 204.173 334.244 204.84 334.244 205.64C334.244 206.28 334.137 206.947 333.924 207.64C333.71 208.28 333.47 208.893 333.204 209.48C333.044 209.8 332.804 210.04 332.484 210.2C332.164 210.307 332.004 210.253 332.004 210.04C332.004 209.773 332.03 209.533 332.084 209.32C332.137 209.107 332.164 208.867 332.164 208.6C332.164 207.587 331.924 206.6 331.444 205.64C331.017 204.627 330.35 204.12 329.444 204.12C328.484 204.12 327.444 204.467 326.324 205.16C325.204 205.8 324.43 206.36 324.004 206.84C322.617 208.28 321.257 210.067 319.924 212.2C318.644 214.333 317.71 216.36 317.124 218.28C316.75 219.4 316.564 220.36 316.564 221.16C316.564 222.067 316.804 222.707 317.284 223.08C317.764 223.453 318.35 223.64 319.044 223.64C319.577 223.64 320.137 223.56 320.724 223.4C321.364 223.24 322.03 223.053 322.724 222.84C324.324 222.307 325.924 221.48 327.524 220.36C329.177 219.187 330.67 217.96 332.004 216.68C333.337 215.347 334.35 214.2 335.044 213.24C335.15 213.347 335.204 213.507 335.204 213.72C335.204 213.987 335.097 214.307 334.884 214.68C334.67 215 334.51 215.267 334.404 215.48C333.284 216.973 331.817 218.52 330.004 220.12C328.19 221.667 326.217 222.973 324.084 224.04C322.004 225.107 319.95 225.64 317.924 225.64ZM347.946 225.4C346.613 225.4 345.6 224.947 344.906 224.04C344.48 223.4 344.053 222.44 343.626 221.16C343.2 219.88 342.826 218.547 342.506 217.16C342.186 215.773 341.92 214.653 341.706 213.8C340.213 215.72 338.88 217.64 337.706 219.56C336.586 221.48 335.84 222.973 335.466 224.04C335.36 224.36 334.986 224.627 334.346 224.84C333.76 225.053 333.173 225.16 332.586 225.16C331.733 225.16 331.413 224.893 331.626 224.36C333.28 220.68 334.853 217.133 336.346 213.72C337.84 210.307 339.413 206.867 341.066 203.4C342.773 199.933 344.693 196.333 346.826 192.6C348.32 189.88 350.106 187.267 352.186 184.76C354.32 182.2 356.586 180.12 358.986 178.52C361.386 176.867 363.813 176.04 366.266 176.04C367.066 176.04 367.813 176.253 368.506 176.68C369.2 177.107 369.546 177.773 369.546 178.68V181C369.546 181.213 369.386 181.32 369.066 181.32C368.906 181.32 368.826 181.267 368.826 181.16C368.826 180.307 368.453 179.747 367.706 179.48C366.96 179.16 366.24 179 365.546 179C363.68 179 361.786 179.373 359.866 180.12C357.733 180.973 355.946 182.253 354.506 183.96C353.066 185.667 351.733 187.48 350.506 189.4C348.906 191.853 347.333 194.733 345.786 198.04C344.24 201.293 342.8 204.573 341.466 207.88C340.186 211.187 339.04 214.173 338.026 216.84C338.613 216.093 339.2 215.347 339.786 214.6C340.373 213.853 340.933 213.16 341.466 212.52C341.466 212.413 341.44 212.307 341.386 212.2C341.386 212.093 341.386 211.987 341.386 211.88C341.386 211.507 341.466 211.187 341.626 210.92C341.786 210.653 342 210.333 342.266 209.96C342.64 209.427 342.986 209.027 343.306 208.76C343.626 208.44 343.973 208.04 344.346 207.56L344.586 208.92C346.933 206.52 348.986 204.787 350.746 203.72C351.973 202.973 353.173 202.6 354.346 202.6C355.52 202.6 356.106 203.053 356.106 203.96C356.106 204.707 355.733 205.64 354.986 206.76C354.72 207.133 354.56 207.4 354.506 207.56C354.453 207.72 354.346 207.88 354.186 208.04C354.133 208.093 354.026 208.093 353.866 208.04C353.706 207.987 353.626 207.907 353.626 207.8C353.626 207.16 353.413 206.76 352.986 206.6C352.56 206.387 352.08 206.28 351.546 206.28C350.533 206.28 349.44 206.653 348.266 207.4C347.146 208.093 346 209.053 344.826 210.28C345.093 211.613 345.386 213.08 345.706 214.68C346.08 216.227 346.48 217.667 346.906 219C347.333 220.333 347.733 221.32 348.106 221.96C348.373 222.387 348.746 222.68 349.226 222.84C349.706 222.947 350.106 223 350.426 223C351.173 223 352.026 222.627 352.986 221.88C354 221.08 355.013 220.147 356.026 219.08C357.093 217.96 358.053 216.867 358.906 215.8C359.813 214.733 360.506 213.88 360.986 213.24C361.2 213.507 361.253 213.773 361.146 214.04C361.093 214.36 360.933 214.707 360.666 215.08C360.453 215.4 360.24 215.693 360.026 215.96C358.96 217.293 357.813 218.653 356.586 220.04C355.36 221.373 354.053 222.573 352.666 223.64C352.08 224.12 351.36 224.547 350.506 224.92C349.653 225.24 348.8 225.4 347.946 225.4ZM379.719 228.12C378.066 228.12 376.493 227.64 374.999 226.68C373.506 225.773 372.386 224.36 371.639 222.44C371.373 221.747 371.186 221 371.079 220.2C371.026 219.4 370.999 218.627 370.999 217.88C370.999 217.133 371.133 216.76 371.399 216.76C371.666 216.76 371.799 217 371.799 217.48C371.799 219.933 372.413 221.827 373.639 223.16C374.919 224.44 376.519 225.08 378.439 225.08C380.786 225.08 382.973 224.44 384.999 223.16C387.079 221.88 388.973 220.307 390.679 218.44C392.386 216.52 393.906 214.6 395.239 212.68C394.599 213.053 394.066 213.24 393.639 213.24C393.053 213.24 392.786 213.027 392.839 212.6C392.839 212.493 392.866 212.36 392.919 212.2C393.026 211.987 393.106 211.827 393.159 211.72C393.319 211.293 393.453 210.84 393.559 210.36C393.719 209.88 393.879 209.427 394.039 209C394.466 207.293 394.893 205.16 395.319 202.6C395.746 200.04 395.959 197.453 395.959 194.84C395.959 192.6 395.746 190.467 395.319 188.44C394.893 186.413 394.119 184.76 392.999 183.48H391.079C390.279 183.48 389.159 183.533 387.719 183.64C386.333 183.747 384.919 183.987 383.479 184.36C382.039 184.733 380.839 185.347 379.879 186.2C378.919 187.053 378.493 188.2 378.599 189.64C378.653 190.067 378.813 190.653 379.079 191.4C379.346 192.093 379.506 192.52 379.559 192.68L378.759 193.32C378.439 192.733 378.039 192.067 377.559 191.32C377.079 190.52 376.626 189.747 376.199 189C375.826 188.253 375.613 187.693 375.559 187.32C375.506 186.787 375.533 186.093 375.639 185.24C375.799 184.387 376.226 183.64 376.919 183C377.719 182.307 378.813 181.853 380.199 181.64C381.639 181.427 383.106 181.32 384.599 181.32C386.039 181.32 387.426 181.373 388.759 181.48C390.093 181.587 391.186 181.64 392.039 181.64C392.039 181.64 393.266 181.64 395.719 181.64C398.226 181.587 401.266 181.56 404.839 181.56L403.159 183.64C401.666 183.64 400.439 183.64 399.479 183.64C398.573 183.587 397.746 183.56 396.999 183.56C396.306 183.507 395.453 183.48 394.439 183.48C396.306 184.76 397.586 186.573 398.279 188.92C399.026 191.267 399.399 193.773 399.399 196.44C399.399 198.733 399.213 201 398.839 203.24C398.466 205.427 398.066 207.293 397.639 208.84C400.146 205.373 402.546 201.8 404.839 198.12C407.133 194.44 409.693 190.973 412.519 187.72C413.426 186.707 414.493 185.56 415.719 184.28C416.999 182.947 418.386 181.773 419.879 180.76C421.426 179.747 422.973 179.24 424.519 179.24C425.266 179.24 425.906 179.4 426.439 179.72C426.973 180.04 427.426 180.6 427.799 181.4C428.066 182.04 428.199 182.627 428.199 183.16C428.199 184.013 428.039 184.787 427.719 185.48C427.399 186.173 427.159 186.707 426.999 187.08C426.946 187.293 426.813 187.4 426.599 187.4C426.386 187.4 426.306 187.293 426.359 187.08C426.466 186.813 426.519 186.547 426.519 186.28C426.519 186.013 426.519 185.773 426.519 185.56C426.519 184.6 426.279 183.72 425.799 182.92C425.319 182.12 424.546 181.72 423.479 181.72C421.986 181.72 420.333 182.467 418.519 183.96C416.706 185.453 415.026 187.08 413.479 188.84C410.706 192.04 408.306 195.08 406.279 197.96C404.306 200.84 402.439 203.773 400.679 206.76C398.919 209.693 397.026 212.92 394.999 216.44C393.879 218.413 392.573 220.307 391.079 222.12C389.639 223.88 387.986 225.32 386.119 226.44C384.306 227.56 382.173 228.12 379.719 228.12ZM410.531 225.16C409.678 225.16 408.905 225 408.211 224.68C407.571 224.307 407.251 223.533 407.251 222.36C407.251 220.493 407.731 218.627 408.691 216.76C409.651 214.84 410.638 213.16 411.651 211.72C412.558 210.493 413.571 209.347 414.691 208.28C415.865 207.16 417.118 206.2 418.451 205.4C419.305 204.867 420.451 204.307 421.891 203.72C423.385 203.08 424.638 202.76 425.651 202.76C426.505 202.76 427.251 203 427.891 203.48C428.531 203.907 428.851 204.707 428.851 205.88C428.851 207.693 428.371 209.56 427.411 211.48C426.505 213.347 425.545 215 424.531 216.44C424.051 217.08 423.571 217.693 423.091 218.28C422.611 218.813 422.078 219.373 421.491 219.96C423.465 219.96 425.278 219.4 426.931 218.28C428.585 217.107 430.025 215.693 431.251 214.04L431.411 213.88C431.571 213.88 431.651 214.04 431.651 214.36C431.651 214.733 431.545 215.08 431.331 215.4C430.265 216.893 428.931 218.227 427.331 219.4C425.731 220.52 423.918 221.08 421.891 221.08C421.678 221.08 421.465 221.08 421.251 221.08C421.038 221.08 420.825 221.053 420.611 221C417.625 223.773 414.265 225.16 410.531 225.16ZM412.611 223.8C413.358 223.8 414.158 223.533 415.011 223C415.918 222.467 416.611 221.96 417.091 221.48C417.998 220.573 418.825 219.613 419.571 218.6C420.318 217.533 421.011 216.467 421.651 215.4C422.398 214.12 423.145 212.6 423.891 210.84C424.638 209.08 425.011 207.427 425.011 205.88C425.011 204.653 424.585 204.04 423.731 204.04C423.038 204.04 422.185 204.333 421.171 204.92C420.211 205.507 419.491 206.04 419.011 206.52C417.198 208.387 415.678 210.413 414.451 212.6C413.758 213.827 413.011 215.267 412.211 216.92C411.411 218.573 411.011 220.093 411.011 221.48C411.011 221.693 411.011 221.907 411.011 222.12C411.065 222.28 411.118 222.467 411.171 222.68C411.385 223.427 411.865 223.8 412.611 223.8ZM434.903 225.24C434.37 225.24 433.916 225.133 433.543 224.92C433.17 224.707 432.983 224.307 432.983 223.72C432.983 222.973 433.17 222.093 433.543 221.08C433.97 220.067 434.423 219.053 434.903 218.04C435.383 217.027 435.783 216.2 436.103 215.56C436.743 214.333 437.356 213.107 437.943 211.88C438.53 210.653 439.036 209.613 439.463 208.76C439.89 207.96 440.103 207.427 440.103 207.16C440.103 206.733 439.783 206.733 439.143 207.16C438.556 207.587 437.996 208.013 437.463 208.44C436.29 209.56 435.063 210.893 433.783 212.44C432.503 213.933 431.516 215.133 430.823 216.04C430.663 216.253 430.53 216.36 430.423 216.36C430.316 216.36 430.263 216.227 430.263 215.96C430.263 215.533 430.396 215.133 430.663 214.76C431.41 213.693 432.29 212.52 433.303 211.24C434.316 209.96 435.356 208.733 436.423 207.56C437.436 206.493 438.476 205.453 439.543 204.44C440.61 203.427 441.97 202.92 443.623 202.92C444.743 202.92 445.303 203.347 445.303 204.2C445.303 204.947 444.983 205.8 444.343 206.76C443.97 207.347 443.383 208.333 442.583 209.72C441.783 211.107 440.956 212.627 440.103 214.28C439.303 215.88 438.61 217.373 438.023 218.76C437.436 220.147 437.143 221.16 437.143 221.8C437.143 222.547 437.516 222.92 438.263 222.92C438.85 222.92 439.57 222.627 440.423 222.04C441.276 221.4 442.156 220.653 443.063 219.8C444.716 218.2 446.21 216.467 447.543 214.6C448.93 212.68 450.103 210.84 451.063 209.08C452.076 207.32 452.876 205.88 453.463 204.76C453.57 204.547 453.676 204.307 453.783 204.04C453.943 203.72 454.183 203.533 454.503 203.48C454.823 203.427 455.516 203.4 456.583 203.4C457.65 203.4 458.636 203.187 459.543 202.76H459.703C459.863 202.76 459.943 202.84 459.943 203C459.943 203.427 459.596 203.747 458.903 203.96C458.263 204.173 457.516 204.813 456.663 205.88C455.863 206.947 455.063 208.253 454.263 209.8C453.463 211.293 452.743 212.84 452.103 214.44C451.463 216.04 450.983 217.507 450.663 218.84C450.343 220.173 450.263 221.16 450.423 221.8C450.636 222.547 451.01 222.92 451.543 222.92C452.236 222.92 453.196 222.493 454.423 221.64C455.703 220.787 457.01 219.773 458.343 218.6C459.676 217.373 460.77 216.253 461.623 215.24C461.996 214.813 462.343 214.387 462.663 213.96C462.983 213.533 463.196 213.267 463.303 213.16C463.356 213.213 463.41 213.32 463.463 213.48C463.516 213.587 463.543 213.693 463.543 213.8C463.49 214.173 463.356 214.547 463.143 214.92C462.93 215.24 462.69 215.533 462.423 215.8C461.41 217.133 460.183 218.547 458.743 220.04C457.356 221.48 455.836 222.707 454.183 223.72C452.583 224.733 450.93 225.24 449.223 225.24C448.69 225.24 448.076 225.107 447.383 224.84C446.743 224.573 446.423 223.987 446.423 223.08C446.423 222.387 446.61 221.453 446.983 220.28C447.356 219.053 447.756 217.853 448.183 216.68C448.663 215.453 449.063 214.547 449.383 213.96C448.69 214.973 447.836 216.12 446.823 217.4C445.863 218.627 444.876 219.72 443.863 220.68C442.53 221.96 441.09 223.053 439.543 223.96C438.05 224.813 436.503 225.24 434.903 225.24ZM462.309 226.12C462.096 226.12 462.096 225.907 462.309 225.48C462.576 225 462.816 224.467 463.029 223.88C463.296 223.293 463.563 222.653 463.829 221.96C464.363 220.68 464.949 219.24 465.589 217.64C466.229 216.04 466.843 214.493 467.429 213C468.016 211.453 468.523 210.147 468.949 209.08C469.429 207.96 469.749 207.24 469.909 206.92C469.163 207.72 468.256 208.733 467.189 209.96C466.176 211.133 465.216 212.28 464.309 213.4C463.403 214.52 462.709 215.4 462.229 216.04C462.069 216.253 461.936 216.36 461.829 216.36C461.723 216.36 461.669 216.227 461.669 215.96C461.669 215.533 461.803 215.133 462.069 214.76C463.083 213.48 464.203 212.04 465.429 210.44C466.709 208.84 467.856 207.373 468.869 206.04C469.883 204.653 470.523 203.747 470.789 203.32C471.376 203.213 472.229 203.053 473.349 202.84C474.523 202.627 475.323 202.333 475.749 201.96C475.909 201.8 476.069 201.72 476.229 201.72C476.336 201.72 476.389 201.827 476.389 202.04C476.443 202.2 476.389 202.387 476.229 202.6C475.909 202.92 475.429 203.613 474.789 204.68C474.203 205.747 473.536 206.973 472.789 208.36C472.043 209.747 471.323 211.08 470.629 212.36C471.163 211.56 471.856 210.627 472.709 209.56C473.616 208.44 474.603 207.373 475.669 206.36C476.736 205.293 477.803 204.413 478.869 203.72C479.989 203.027 481.029 202.68 481.989 202.68C482.683 202.68 483.269 202.84 483.749 203.16C484.229 203.427 484.603 203.933 484.869 204.68C485.029 205.053 485.109 205.48 485.109 205.96C485.109 206.867 484.869 207.747 484.389 208.6C483.963 209.4 483.643 210.013 483.429 210.44C483.376 210.6 483.189 210.76 482.869 210.92C482.549 211.027 482.416 210.973 482.469 210.76C482.523 210.493 482.549 210.227 482.549 209.96C482.603 209.693 482.629 209.4 482.629 209.08C482.629 208.173 482.443 207.347 482.069 206.6C481.749 205.853 481.136 205.48 480.229 205.48C479.376 205.48 478.336 206.013 477.109 207.08C475.883 208.147 474.656 209.373 473.429 210.76C471.883 212.573 470.656 214.307 469.749 215.96C468.843 217.56 468.096 219.133 467.509 220.68C467.189 221.533 466.869 222.387 466.549 223.24C466.229 224.04 465.989 224.68 465.829 225.16C465.136 225.213 464.443 225.373 463.749 225.64C463.056 225.96 462.576 226.12 462.309 226.12ZM495.542 226.52C495.169 226.52 494.875 226.413 494.662 226.2C494.449 226.04 494.449 225.907 494.662 225.8C495.835 225.587 496.849 225.16 497.702 224.52C498.555 223.827 499.249 222.973 499.782 221.96C500.902 220.093 501.995 218.227 503.062 216.36C504.182 214.44 505.249 212.52 506.262 210.6C507.489 208.253 508.742 205.907 510.022 203.56C511.302 201.16 512.582 198.787 513.862 196.44C515.089 194.253 516.182 192.147 517.142 190.12C518.102 188.093 518.822 186.627 519.302 185.72C519.675 185.027 520.315 184.413 521.222 183.88C522.182 183.293 523.115 182.84 524.022 182.52C523.702 182.52 523.382 182.52 523.062 182.52C522.742 182.467 522.395 182.44 522.022 182.44C520.369 182.44 518.555 182.547 516.582 182.76C514.662 182.92 512.769 183.187 510.902 183.56C509.089 183.933 507.489 184.44 506.102 185.08C504.715 185.72 503.782 186.493 503.302 187.4C503.089 187.88 502.902 188.36 502.742 188.84C502.582 189.32 502.502 189.8 502.502 190.28C502.502 191.507 502.929 192.387 503.782 192.92C503.835 192.92 503.862 192.973 503.862 193.08C503.862 193.187 503.755 193.293 503.542 193.4C503.382 193.507 503.249 193.533 503.142 193.48C502.609 193.213 501.995 192.573 501.302 191.56C500.662 190.493 500.235 189.613 500.022 188.92C499.862 188.28 499.782 187.693 499.782 187.16C499.782 185.773 500.235 184.707 501.142 183.96C502.049 183.16 503.195 182.6 504.582 182.28C505.969 181.907 507.382 181.693 508.822 181.64C510.315 181.533 511.622 181.48 512.742 181.48C514.449 181.48 516.475 181.48 518.822 181.48C521.169 181.427 523.329 181.4 525.302 181.4C525.782 181.4 526.315 181.4 526.902 181.4C527.489 181.347 528.102 181.32 528.742 181.32C530.182 181.32 531.675 181.4 533.222 181.56C534.769 181.72 536.182 182.067 537.462 182.6C538.742 183.133 539.729 183.96 540.422 185.08C541.489 186.733 542.022 188.493 542.022 190.36C542.022 192.44 541.409 194.413 540.182 196.28C539.009 198.093 537.515 199.693 535.702 201.08C533.889 202.467 532.049 203.533 530.182 204.28C528.422 204.973 526.449 205.453 524.262 205.72C522.129 205.987 520.209 206.12 518.502 206.12C517.969 206.12 517.435 206.12 516.902 206.12C516.422 206.067 515.995 206.013 515.622 205.96C515.515 205.96 515.462 205.907 515.462 205.8C515.462 205.587 515.675 205.293 516.102 204.92C516.529 204.493 516.875 204.307 517.142 204.36C517.569 204.413 517.995 204.44 518.422 204.44C518.849 204.44 519.302 204.44 519.782 204.44C521.809 204.44 523.969 204.173 526.262 203.64C528.555 203.107 530.662 202.093 532.582 200.6C534.555 199.053 536.049 196.813 537.062 193.88C537.329 193.24 537.489 192.6 537.542 191.96C537.649 191.267 537.702 190.6 537.702 189.96C537.702 188.147 537.249 186.547 536.342 185.16C535.435 183.773 534.129 182.973 532.422 182.76C532.209 182.707 531.969 182.68 531.702 182.68C531.435 182.68 531.169 182.68 530.902 182.68C529.889 182.68 528.769 182.813 527.542 183.08C526.369 183.347 525.489 183.853 524.902 184.6C523.569 186.36 522.289 188.36 521.062 190.6C519.835 192.787 518.662 195.027 517.542 197.32C516.422 199.56 515.355 201.667 514.342 203.64C514.075 204.173 513.569 205.133 512.822 206.52C512.075 207.853 511.249 209.4 510.342 211.16C509.435 212.867 508.582 214.573 507.782 216.28C506.982 217.987 506.342 219.507 505.862 220.84C505.435 222.173 505.329 223.08 505.542 223.56C505.595 223.613 505.622 223.693 505.622 223.8C505.622 223.96 505.542 224.04 505.382 224.04C504.955 224.04 504.529 223.933 504.102 223.72C503.675 223.507 503.169 223.4 502.582 223.4C502.049 223.4 501.515 223.533 500.982 223.8C500.449 224.013 499.755 224.413 498.902 225C498.049 225.587 497.089 226.067 496.022 226.44C495.915 226.493 495.755 226.52 495.542 226.52ZM540.903 226.12C540.69 226.12 540.69 225.907 540.903 225.48C541.17 225 541.41 224.467 541.623 223.88C541.89 223.293 542.156 222.653 542.423 221.96C542.956 220.68 543.543 219.24 544.183 217.64C544.823 216.04 545.436 214.493 546.023 213C546.61 211.453 547.116 210.147 547.543 209.08C548.023 207.96 548.343 207.24 548.503 206.92C547.756 207.72 546.85 208.733 545.783 209.96C544.77 211.133 543.81 212.28 542.903 213.4C541.996 214.52 541.303 215.4 540.823 216.04C540.663 216.253 540.53 216.36 540.423 216.36C540.316 216.36 540.263 216.227 540.263 215.96C540.263 215.533 540.396 215.133 540.663 214.76C541.676 213.48 542.796 212.04 544.023 210.44C545.303 208.84 546.45 207.373 547.463 206.04C548.476 204.653 549.116 203.747 549.383 203.32C549.97 203.213 550.823 203.053 551.943 202.84C553.116 202.627 553.916 202.333 554.343 201.96C554.503 201.8 554.663 201.72 554.823 201.72C554.93 201.72 554.983 201.827 554.983 202.04C555.036 202.2 554.983 202.387 554.823 202.6C554.503 202.92 554.023 203.613 553.383 204.68C552.796 205.747 552.13 206.973 551.383 208.36C550.636 209.747 549.916 211.08 549.223 212.36C549.756 211.56 550.45 210.627 551.303 209.56C552.21 208.44 553.196 207.373 554.263 206.36C555.33 205.293 556.396 204.413 557.463 203.72C558.583 203.027 559.623 202.68 560.583 202.68C561.276 202.68 561.863 202.84 562.343 203.16C562.823 203.427 563.196 203.933 563.463 204.68C563.623 205.053 563.703 205.48 563.703 205.96C563.703 206.867 563.463 207.747 562.983 208.6C562.556 209.4 562.236 210.013 562.023 210.44C561.97 210.6 561.783 210.76 561.463 210.92C561.143 211.027 561.01 210.973 561.063 210.76C561.116 210.493 561.143 210.227 561.143 209.96C561.196 209.693 561.223 209.4 561.223 209.08C561.223 208.173 561.036 207.347 560.663 206.6C560.343 205.853 559.73 205.48 558.823 205.48C557.97 205.48 556.93 206.013 555.703 207.08C554.476 208.147 553.25 209.373 552.023 210.76C550.476 212.573 549.25 214.307 548.343 215.96C547.436 217.56 546.69 219.133 546.103 220.68C545.783 221.533 545.463 222.387 545.143 223.24C544.823 224.04 544.583 224.68 544.423 225.16C543.73 225.213 543.036 225.373 542.343 225.64C541.65 225.96 541.17 226.12 540.903 226.12ZM563.5 225.16C562.647 225.16 561.873 225 561.18 224.68C560.54 224.307 560.22 223.533 560.22 222.36C560.22 220.493 560.7 218.627 561.66 216.76C562.62 214.84 563.607 213.16 564.62 211.72C565.527 210.493 566.54 209.347 567.66 208.28C568.833 207.16 570.087 206.2 571.42 205.4C572.273 204.867 573.42 204.307 574.86 203.72C576.353 203.08 577.607 202.76 578.62 202.76C579.473 202.76 580.22 203 580.86 203.48C581.5 203.907 581.82 204.707 581.82 205.88C581.82 207.693 581.34 209.56 580.38 211.48C579.473 213.347 578.513 215 577.5 216.44C577.02 217.08 576.54 217.693 576.06 218.28C575.58 218.813 575.047 219.373 574.46 219.96C576.433 219.96 578.247 219.4 579.9 218.28C581.553 217.107 582.993 215.693 584.22 214.04L584.38 213.88C584.54 213.88 584.62 214.04 584.62 214.36C584.62 214.733 584.513 215.08 584.3 215.4C583.233 216.893 581.9 218.227 580.3 219.4C578.7 220.52 576.887 221.08 574.86 221.08C574.647 221.08 574.433 221.08 574.22 221.08C574.007 221.08 573.793 221.053 573.58 221C570.593 223.773 567.233 225.16 563.5 225.16ZM565.58 223.8C566.327 223.8 567.127 223.533 567.98 223C568.887 222.467 569.58 221.96 570.06 221.48C570.967 220.573 571.793 219.613 572.54 218.6C573.287 217.533 573.98 216.467 574.62 215.4C575.367 214.12 576.113 212.6 576.86 210.84C577.607 209.08 577.98 207.427 577.98 205.88C577.98 204.653 577.553 204.04 576.7 204.04C576.007 204.04 575.153 204.333 574.14 204.92C573.18 205.507 572.46 206.04 571.98 206.52C570.167 208.387 568.647 210.413 567.42 212.6C566.727 213.827 565.98 215.267 565.18 216.92C564.38 218.573 563.98 220.093 563.98 221.48C563.98 221.693 563.98 221.907 563.98 222.12C564.033 222.28 564.087 222.467 564.14 222.68C564.353 223.427 564.833 223.8 565.58 223.8ZM569.072 253C567.045 253 565.099 252.52 563.232 251.56C561.312 250.653 559.899 249.24 558.992 247.32C558.619 246.627 558.379 245.88 558.272 245.08C558.165 244.333 558.112 243.587 558.112 242.84V242.04C558.112 241.613 558.165 241.213 558.272 240.84C558.379 240.467 558.672 240.28 559.152 240.28C559.259 240.28 559.312 240.333 559.312 240.44C559.312 240.76 559.285 241.08 559.232 241.4C559.179 241.72 559.152 242.067 559.152 242.44C559.152 244.893 559.952 246.76 561.552 248.04C563.099 249.32 565.045 249.96 567.392 249.96C568.352 249.96 569.339 249.853 570.352 249.64C571.365 249.427 572.299 249.133 573.152 248.76C576.565 247.32 579.525 245.24 582.032 242.52C584.592 239.8 586.805 236.733 588.672 233.32C590.592 229.907 592.272 226.413 593.712 222.84C595.205 219.213 596.592 215.8 597.872 212.6C596.752 214.413 595.525 216.04 594.192 217.48C592.859 218.867 591.365 220.253 589.712 221.64C588.699 222.493 587.579 223.293 586.352 224.04C585.179 224.787 583.899 225.16 582.512 225.16C581.979 225.16 581.605 225 581.392 224.68C581.179 224.307 581.072 223.88 581.072 223.4V222.84C581.339 220.76 582.005 218.6 583.072 216.36C584.192 214.12 585.525 212.013 587.072 210.04C588.619 208.067 590.192 206.467 591.792 205.24C593.605 203.853 595.605 203.16 597.792 203.16H606.992C607.259 203.16 607.392 203.267 607.392 203.48C607.392 203.907 607.152 204.12 606.672 204.12C606.085 204.12 605.525 204.36 604.992 204.84C604.459 205.32 604.059 205.773 603.792 206.2C603.259 207.053 602.565 208.36 601.712 210.12C600.859 211.88 599.925 213.907 598.912 216.2C597.899 218.44 596.885 220.733 595.872 223.08C594.859 225.373 593.925 227.533 593.072 229.56C591.792 232.6 590.325 235.56 588.672 238.44C587.072 241.373 585.152 243.987 582.912 246.28C580.725 248.627 578.112 250.467 575.072 251.8C573.259 252.6 571.259 253 569.072 253ZM585.792 222.44C586.432 222.44 587.312 221.987 588.432 221.08C589.552 220.12 590.779 218.947 592.112 217.56C593.445 216.12 594.699 214.627 595.872 213.08C597.045 211.48 598.005 210.04 598.752 208.76C599.552 207.427 599.952 206.413 599.952 205.72C599.952 205.133 599.765 204.733 599.392 204.52C599.072 204.307 598.645 204.2 598.112 204.2C597.259 204.2 596.352 204.52 595.392 205.16C594.432 205.747 593.659 206.333 593.072 206.92C592.432 207.507 591.659 208.44 590.752 209.72C589.899 210.947 589.019 212.307 588.112 213.8C587.259 215.293 586.539 216.733 585.952 218.12C585.365 219.507 585.072 220.627 585.072 221.48C585.072 222.12 585.312 222.44 585.792 222.44ZM605.044 226.12C604.83 226.12 604.83 225.907 605.044 225.48C605.31 225 605.55 224.467 605.764 223.88C606.03 223.293 606.297 222.653 606.564 221.96C607.097 220.68 607.684 219.24 608.324 217.64C608.964 216.04 609.577 214.493 610.164 213C610.75 211.453 611.257 210.147 611.684 209.08C612.164 207.96 612.484 207.24 612.644 206.92C611.897 207.72 610.99 208.733 609.924 209.96C608.91 211.133 607.95 212.28 607.044 213.4C606.137 214.52 605.444 215.4 604.964 216.04C604.804 216.253 604.67 216.36 604.564 216.36C604.457 216.36 604.404 216.227 604.404 215.96C604.404 215.533 604.537 215.133 604.804 214.76C605.817 213.48 606.937 212.04 608.164 210.44C609.444 208.84 610.59 207.373 611.604 206.04C612.617 204.653 613.257 203.747 613.524 203.32C614.11 203.213 614.964 203.053 616.084 202.84C617.257 202.627 618.057 202.333 618.484 201.96C618.644 201.8 618.804 201.72 618.964 201.72C619.07 201.72 619.124 201.827 619.124 202.04C619.177 202.2 619.124 202.387 618.964 202.6C618.644 202.92 618.164 203.613 617.524 204.68C616.937 205.747 616.27 206.973 615.524 208.36C614.777 209.747 614.057 211.08 613.364 212.36C613.897 211.56 614.59 210.627 615.444 209.56C616.35 208.44 617.337 207.373 618.404 206.36C619.47 205.293 620.537 204.413 621.604 203.72C622.724 203.027 623.764 202.68 624.724 202.68C625.417 202.68 626.004 202.84 626.484 203.16C626.964 203.427 627.337 203.933 627.604 204.68C627.764 205.053 627.844 205.48 627.844 205.96C627.844 206.867 627.604 207.747 627.124 208.6C626.697 209.4 626.377 210.013 626.164 210.44C626.11 210.6 625.924 210.76 625.604 210.92C625.284 211.027 625.15 210.973 625.204 210.76C625.257 210.493 625.284 210.227 625.284 209.96C625.337 209.693 625.364 209.4 625.364 209.08C625.364 208.173 625.177 207.347 624.804 206.6C624.484 205.853 623.87 205.48 622.964 205.48C622.11 205.48 621.07 206.013 619.844 207.08C618.617 208.147 617.39 209.373 616.164 210.76C614.617 212.573 613.39 214.307 612.484 215.96C611.577 217.56 610.83 219.133 610.244 220.68C609.924 221.533 609.604 222.387 609.284 223.24C608.964 224.04 608.724 224.68 608.564 225.16C607.87 225.213 607.177 225.373 606.484 225.64C605.79 225.96 605.31 226.12 605.044 226.12ZM630.921 225.64C628.734 225.64 627.214 225.213 626.361 224.36C625.507 223.507 625.081 222.467 625.081 221.24C625.081 219.693 625.481 218.04 626.281 216.28C627.134 214.52 627.934 213.027 628.681 211.8C629.534 210.52 630.681 209.187 632.121 207.8C633.561 206.413 635.134 205.24 636.841 204.28C638.547 203.32 640.201 202.84 641.801 202.84C643.187 202.84 644.147 203.187 644.681 203.88C645.214 204.52 645.481 205.293 645.481 206.2C645.481 207.853 644.974 209.213 643.961 210.28C643.001 211.347 641.801 212.227 640.361 212.92C638.921 213.56 637.534 214.093 636.201 214.52C635.401 214.733 634.467 214.947 633.401 215.16C632.334 215.373 631.321 215.48 630.361 215.48C629.987 216.44 629.694 217.373 629.481 218.28C629.267 219.187 629.161 220.013 629.161 220.76C629.161 221.667 629.374 222.413 629.801 223C630.281 223.587 631.054 223.88 632.121 223.88C632.547 223.88 633.054 223.827 633.641 223.72C634.227 223.613 634.867 223.453 635.561 223.24C637.161 222.707 638.734 221.853 640.281 220.68C641.827 219.507 643.241 218.253 644.521 216.92C645.854 215.533 646.867 214.387 647.561 213.48C647.721 213.64 647.801 213.827 647.801 214.04C647.801 214.307 647.614 214.733 647.241 215.32C646.174 216.813 644.787 218.36 643.081 219.96C641.374 221.56 639.481 222.92 637.401 224.04C635.321 225.107 633.161 225.64 630.921 225.64ZM631.001 213.88C631.694 213.933 632.467 213.933 633.321 213.88C634.227 213.773 635.107 213.587 635.961 213.32C638.147 212.68 639.721 211.667 640.681 210.28C641.694 208.84 642.201 207.56 642.201 206.44C642.201 205.8 642.067 205.267 641.801 204.84C641.534 204.413 641.107 204.2 640.521 204.2C638.974 204.2 637.587 204.787 636.361 205.96C635.134 207.08 634.067 208.387 633.161 209.88C632.254 211.373 631.534 212.707 631.001 213.88ZM651.083 226.28C650.123 226.28 649.109 226.147 648.043 225.88C646.976 225.613 646.016 225.187 645.163 224.6C644.363 223.96 643.829 223.107 643.562 222.04C643.509 221.88 643.482 221.64 643.482 221.32C643.482 220.573 643.643 219.747 643.963 218.84C644.336 217.933 644.789 217.293 645.323 216.92C645.536 216.813 645.696 216.813 645.803 216.92C645.963 217.027 645.989 217.133 645.883 217.24C645.829 217.4 645.749 217.613 645.643 217.88C645.536 218.093 645.456 218.333 645.403 218.6C645.243 219.987 645.536 221.213 646.283 222.28C646.603 222.707 646.976 223.107 647.403 223.48C647.883 223.853 648.336 224.173 648.763 224.44C649.136 224.653 649.589 224.813 650.123 224.92C650.656 224.973 651.189 225 651.723 225C652.576 225 653.403 224.893 654.203 224.68C655.003 224.467 655.589 224.12 655.963 223.64C656.656 222.787 657.003 221.827 657.003 220.76C657.003 219.96 656.789 219.107 656.363 218.2C655.936 217.293 655.269 216.333 654.363 215.32C653.776 214.68 653.216 213.987 652.683 213.24C652.149 212.493 651.803 211.693 651.643 210.84C651.589 210.68 651.536 210.52 651.483 210.36C651.483 210.2 651.483 210.04 651.483 209.88C650.789 210.893 650.069 211.853 649.323 212.76C648.629 213.613 648.016 214.36 647.483 215C647.269 215.32 647.083 215.48 646.923 215.48C646.816 215.48 646.763 215.373 646.763 215.16C646.763 214.68 646.976 214.173 647.403 213.64C647.829 213.16 648.309 212.573 648.842 211.88C649.376 211.133 649.803 210.547 650.123 210.12C651.029 208.787 651.696 207.747 652.123 207C652.603 206.2 653.109 205.48 653.643 204.84C654.229 204.147 654.949 203.587 655.803 203.16C656.709 202.733 657.643 202.52 658.603 202.52C659.723 202.52 660.736 202.707 661.643 203.08C662.603 203.4 663.109 204.253 663.163 205.64C663.163 206.28 663.029 206.947 662.763 207.64C662.549 208.28 662.309 208.893 662.043 209.48C661.883 209.8 661.643 210.04 661.323 210.2C661.056 210.307 660.923 210.253 660.923 210.04C660.923 209.827 660.949 209.587 661.003 209.32C661.056 209.053 661.083 208.813 661.083 208.6C661.083 207.693 660.923 206.893 660.603 206.2C660.336 205.453 659.936 204.92 659.403 204.6C658.869 204.227 658.309 204.04 657.723 204.04C656.869 204.04 656.043 204.387 655.243 205.08C654.443 205.72 654.043 206.573 654.043 207.64C654.043 207.747 654.043 207.88 654.043 208.04C654.043 208.2 654.069 208.333 654.122 208.44C654.336 209.293 654.976 210.253 656.043 211.32C657.109 212.387 657.936 213.32 658.523 214.12C659.536 215.507 660.043 216.92 660.043 218.36C660.043 219.8 659.616 221.133 658.763 222.36C657.963 223.533 656.869 224.467 655.483 225.16C654.149 225.907 652.683 226.28 651.083 226.28ZM669.676 226.28C668.716 226.28 667.703 226.147 666.636 225.88C665.57 225.613 664.61 225.187 663.756 224.6C662.956 223.96 662.423 223.107 662.156 222.04C662.103 221.88 662.076 221.64 662.076 221.32C662.076 220.573 662.236 219.747 662.556 218.84C662.93 217.933 663.383 217.293 663.916 216.92C664.13 216.813 664.29 216.813 664.396 216.92C664.556 217.027 664.583 217.133 664.476 217.24C664.423 217.4 664.343 217.613 664.236 217.88C664.13 218.093 664.05 218.333 663.996 218.6C663.836 219.987 664.13 221.213 664.876 222.28C665.196 222.707 665.57 223.107 665.996 223.48C666.476 223.853 666.93 224.173 667.356 224.44C667.73 224.653 668.183 224.813 668.716 224.92C669.25 224.973 669.783 225 670.316 225C671.17 225 671.996 224.893 672.796 224.68C673.596 224.467 674.183 224.12 674.556 223.64C675.25 222.787 675.596 221.827 675.596 220.76C675.596 219.96 675.383 219.107 674.956 218.2C674.53 217.293 673.863 216.333 672.956 215.32C672.37 214.68 671.81 213.987 671.276 213.24C670.743 212.493 670.396 211.693 670.236 210.84C670.183 210.68 670.13 210.52 670.076 210.36C670.076 210.2 670.076 210.04 670.076 209.88C669.383 210.893 668.663 211.853 667.916 212.76C667.223 213.613 666.61 214.36 666.076 215C665.863 215.32 665.676 215.48 665.516 215.48C665.41 215.48 665.356 215.373 665.356 215.16C665.356 214.68 665.57 214.173 665.996 213.64C666.423 213.16 666.903 212.573 667.436 211.88C667.97 211.133 668.396 210.547 668.716 210.12C669.623 208.787 670.29 207.747 670.716 207C671.196 206.2 671.703 205.48 672.236 204.84C672.823 204.147 673.543 203.587 674.396 203.16C675.303 202.733 676.236 202.52 677.196 202.52C678.316 202.52 679.33 202.707 680.236 203.08C681.196 203.4 681.703 204.253 681.756 205.64C681.756 206.28 681.623 206.947 681.356 207.64C681.143 208.28 680.903 208.893 680.636 209.48C680.476 209.8 680.236 210.04 679.916 210.2C679.65 210.307 679.516 210.253 679.516 210.04C679.516 209.827 679.543 209.587 679.596 209.32C679.65 209.053 679.676 208.813 679.676 208.6C679.676 207.693 679.516 206.893 679.196 206.2C678.93 205.453 678.53 204.92 677.996 204.6C677.463 204.227 676.903 204.04 676.316 204.04C675.463 204.04 674.636 204.387 673.836 205.08C673.036 205.72 672.636 206.573 672.636 207.64C672.636 207.747 672.636 207.88 672.636 208.04C672.636 208.2 672.663 208.333 672.716 208.44C672.93 209.293 673.57 210.253 674.636 211.32C675.703 212.387 676.53 213.32 677.116 214.12C678.13 215.507 678.636 216.92 678.636 218.36C678.636 219.8 678.21 221.133 677.356 222.36C676.556 223.533 675.463 224.467 674.076 225.16C672.743 225.907 671.276 226.28 669.676 226.28Z" fill="#DAB7DB"/>
</svg>
